<?xml version="1.0" encoding="utf-8"?>
<!-- Generator: Adobe Illustrator 25.0.0, SVG Export Plug-In . SVG Version: 6.00 Build 0)  -->
<svg version="1.1" id="Layer_1" xmlns="http://www.w3.org/2000/svg" xmlns:xlink="http://www.w3.org/1999/xlink" x="0px" y="0px"
	 viewBox="0 0 1080 1080" style="enable-background:new 0 0 1080 1080;" xml:space="preserve">
<style type="text/css">
	.st0{fill:#036A39;}
</style>
<g>
	<path class="st0" d="M277,204c0,0,38.7,67.2,95.2,108.7c33.1,24.2,89.2,55.6,145.6,79.9c56.4,24.3,106.2,38.8,146.3,65.7
		c60.2,40.5,126,103.9,126,103.9c10.2,7.5,24.6,5.5,31.9-4.5l0.2-0.3c7.3-10,4.9-24.3-5.3-31.8c0,0-68.7-61.3-126.1-101.5
		c-45.7-32-86.4-40.4-152.9-71.6c-62.8-29.4-123.6-65.2-138.8-76.4c-54.6-40-81.5-75-95.2-108.7c-6.5-16.1-5.3-50.7-18.6-61.2
		c-7.8-6.1-23-2.1-28.4,6.6C244.3,133,269.8,191.1,277,204z"/>
	<path class="st0" d="M509.1,383.6c0,0-12,234.5-18.6,312.8c-4.9,58.1-9.6,178.2-29.4,232.6c-10.8,29.7-36.5,65.8-15.2,75.6
		c17.2,7.9,28.5-5.2,35.9-18.3c6.9-12.2,12-25,19.9-50.8c17.2-55.9,24.6-175.4,29.5-233.8c6.4-76.4,6.5-76.4,18.7-314.6
		c1.1-13.1-7.2-24.6-18.5-25.6l0,0C520.4,360.5,510.3,370.4,509.1,383.6z"/>
	<path class="st0" d="M571.3,401.6c0,0,4.3,207.7,17.7,275.6c5.8,29.6,11.4,68.3,25.3,105.9c10.5,28.5,20.1,49.2,45.6,65.4
		c18.7,11.9,64.8,12.7,56,44.2c-5.5,20-42.5,9.6-56.4,5.1c-56.2-18.4-80.2-76.2-90.2-102.8c-15-39.5-20.4-81.7-26.6-112.7
		c-13.3-66.3-10.4-67.3-17.8-277.2c-0.9-11.6,8.8-21.8,21.6-22.8h0C559.2,381.4,570.4,390,571.3,401.6z"/>
	<path class="st0" d="M652.2,181.2c-19.1,51.9-72.9,80-72.9,80s-22.9-56.2-3.8-108.1s72.9-80,72.9-80S671.3,129.3,652.2,181.2z"/>
	<path class="st0" d="M674.5,288.1c-44.5,8.2-86.4-16.7-86.4-16.7s30.2-38.3,74.7-46.6c44.5-8.2,86.4,16.7,86.4,16.7
		S719,279.8,674.5,288.1z"/>
	<path class="st0" d="M541.3,180.5c26.4,34.2,22.4,81.5,22.4,81.5s-46.8-8-73.2-42.2C464,185.7,468,138.3,468,138.3
		S514.9,146.4,541.3,180.5z"/>
	<path class="st0" d="M604.3,335c-19-22.1-18-54.2-18-54.2s31.8,3.8,50.9,25.9c19,22.1,18,54.2,18,54.2S623.3,357.1,604.3,335z"/>
	<path class="st0" d="M512.8,301.3c-28.9,3.8-55.1-14.7-55.1-14.7s20.6-24.5,49.6-28.3c28.9-3.8,55.1,14.7,55.1,14.7
		S541.7,297.5,512.8,301.3z"/>
	<path class="st0" d="M544.2,320c-10.5,12.1-26.6,15.3-26.6,15.3s1-16.4,11.5-28.5s26.6-15.3,26.6-15.3S554.8,307.9,544.2,320z"/>
	<path class="st0" d="M588.6,328.4c2.3,15.9-5.8,30.2-5.8,30.2s-11.7-11.5-14-27.4c-2.3-15.9,5.8-30.2,5.8-30.2
		S586.3,312.5,588.6,328.4z"/>
</g>
</svg>
