<?xml version="1.0" encoding="utf-8"?>
<!-- Generator: Adobe Illustrator 25.0.0, SVG Export Plug-In . SVG Version: 6.00 Build 0)  -->
<svg version="1.1" id="Layer_1" xmlns="http://www.w3.org/2000/svg" xmlns:xlink="http://www.w3.org/1999/xlink" x="0px" y="0px"
	 viewBox="0 0 1080 1080" style="enable-background:new 0 0 1080 1080;" xml:space="preserve">
<style type="text/css">
	.st0{fill:#459C24;}
</style>
<g>
	<path class="st0" d="M799.5,185c0,0-38.1,67.4-93.9,110.8c-32.6,25.3-88,58.8-143.7,85.4s-104.8,43.3-144.4,71.6
		c-59.4,42.6-124.3,107.7-124.3,107.7c-10.1,7.8-24.3,6.6-31.5-2.7l-0.2-0.3c-7.2-9.3-4.9-23.4,5.2-31.2c0,0,66.9-64.5,124.4-105.4
		c41.9-29.7,85.3-43.8,151-77.7c62-31.9,121.9-69.9,137-81.6c53.9-41.8,80.4-77.3,93.9-110.8c6.4-16,5.2-49.6,18.2-60.5
		c7.7-6.4,22.7-3.2,28,4.9C831.7,114.1,806.7,172,799.5,185z"/>
	<path class="st0" d="M558.2,384.5c0,0,10.3,234,16.4,312.1c4.5,58,13.2,177.1,27.9,232.2c4.6,17.2,16.6,39.7,19.9,53.8
		c3,12.7-2.1,21.7-11.8,23.1c-14.3,2.1-21.2-7.3-29.4-19.9c-9.3-14.2-16.1-34.7-19.7-50.8c-12.7-57-23.4-175.1-28-233.4
		c-5.9-76.3-6-76.3-16.5-313.9c-1-13.1,7.4-24.5,18.8-25.4h0C547.1,361.4,557.2,371.4,558.2,384.5z"/>
	<path class="st0" d="M505.4,394.3c0,0-5.1,201.4-17.4,267.3c-5.4,28.8-10.6,66.3-23.1,102.9c-9.5,27.7-18.2,47.8-41,63.7
		c-16.7,11.7-59.2,6.8-50.1,38.7c4.6,15.9,37.7,13.6,50.1,9.1c50.1-18.2,71.7-74.4,80.8-100.2c13.6-38.4,18.6-79.4,24.4-109.4
		c12.3-64.3,9.7-65.3,17.6-268.9c0.9-11.2-7.7-21.1-19-22l0,0C516.3,374.6,506.3,383,505.4,394.3z"/>
	<path class="st0" d="M494.1,150.8c18.9,50.1-2.8,104.7-2.8,104.7s-52.3-26.7-71.3-76.8S422.9,74,422.9,74S475.2,100.6,494.1,150.8z
		"/>
	<path class="st0" d="M578.1,214.9c-27.4,34.2-73.9,42.5-73.9,42.5s-2.1-47.2,25.2-81.4c27.4-34.2,73.9-42.5,73.9-42.5
		S605.5,180.7,578.1,214.9z"/>
	<path class="st0" d="M412.4,220.5c41,8.3,68,45.5,68,45.5S441,289.8,400,281.5s-68-45.5-68-45.5S371.4,212.2,412.4,220.5z"/>
	<path class="st0" d="M556.4,293.7c-27.9-4.2-47.5-28.3-47.5-28.3s25.7-17.4,53.6-13.2c27.9,4.2,47.5,28.3,47.5,28.3
		S584.3,297.9,556.4,293.7z"/>
	<path class="st0" d="M468,326.9c-18.8,21.1-49.7,24.1-49.7,24.1s-0.4-31,18.4-52.1c18.8-21.1,49.7-24.1,49.7-24.1
		S486.8,305.9,468,326.9z"/>
	<path class="st0" d="M502.9,320.8c-0.1,15.5-9.8,28.1-9.8,28.1s-9.6-12.6-9.6-28.2s9.8-28.1,9.8-28.1S502.9,305.2,502.9,320.8z"/>
	<path class="st0" d="M540.7,298.9c11.7,10.2,14.8,25.8,14.8,25.8s-15.8-1-27.6-11.2c-11.7-10.2-14.8-25.8-14.8-25.8
		S528.9,288.6,540.7,298.9z"/>
</g>
</svg>
