<svg xmlns="http://www.w3.org/2000/svg" viewBox="0 0 2000 1500"><defs><style>.cls-1{fill:#459c24;}.cls-2{fill:#036a39;}.cls-3{fill:#ffc20e;stroke:#ffc20e;stroke-linecap:round;stroke-linejoin:round;stroke-width:13.3px;}</style></defs><g id="BUDS"><path class="cls-1" d="M1018.16,519.47s-29.29,51.87-72.22,85.19c-25.09,19.47-67.68,45.21-110.51,65.65s-80.61,33.28-111,55.07c-45.68,32.72-95.6,82.8-95.6,82.8-7.77,6-18.68,5.1-24.24-2.06l-.17-.22c-5.57-7.17-3.76-18,4-24,0,0,51.42-49.6,95.68-81,32.19-22.86,65.62-33.72,116.1-59.73,47.65-24.55,93.77-53.75,105.36-62.75C967,546.22,987.37,519,997.76,493.19c5-12.28,4-38.14,14-46.53,5.89-4.91,17.46-2.46,21.57,3.79C1042.91,465,1023.67,509.5,1018.16,519.47Z"/><path class="cls-1" d="M832.55,672.92s7.93,180,12.59,240c3.47,44.61,10.19,136.2,21.45,178.6,3.51,13.22,12.77,30.55,15.33,41.37,2.31,9.8-1.64,16.7-9.08,17.77-11,1.59-16.3-5.59-22.63-15.31-7.13-11-12.39-26.7-15.15-39.05-9.79-43.82-18-134.67-21.51-179.51-4.56-58.65-4.62-58.64-12.7-241.44-.78-10.07,5.71-18.87,14.43-19.55h0C824,655.15,831.77,662.84,832.55,672.92Z"/><path class="cls-1" d="M792,680.43S788.07,835.32,778.57,886c-4.14,22.11-8.12,51-17.78,79.12-7.31,21.29-14,36.76-31.51,49-12.83,9-45.52,5.25-38.52,29.76,3.5,12.25,29,10.45,38.52,7,38.51-14,55.16-57.22,62.17-77.07,10.43-29.52,14.32-61,18.74-84.16,9.43-49.47,7.46-50.21,13.51-206.78A15.87,15.87,0,0,0,809.06,666h0A15.87,15.87,0,0,0,792,680.43Z"/><path class="cls-1" d="M783.29,493.16c14.54,38.55-2.12,80.53-2.12,80.53s-40.26-20.5-54.81-59,2.13-80.53,2.13-80.53S768.74,454.62,783.29,493.16Z"/><path class="cls-1" d="M847.87,542.52c-21,26.3-56.8,32.67-56.8,32.67s-1.63-36.28,19.41-62.58,56.8-32.68,56.8-32.68S868.91,516.21,847.87,542.52Z"/><path class="cls-1" d="M720.43,546.78c31.5,6.39,52.27,35,52.27,35s-30.29,18.28-61.79,11.89-52.27-35-52.27-35S688.94,540.39,720.43,546.78Z"/><path class="cls-1" d="M831.15,603.09c-21.47-3.2-36.5-21.75-36.5-21.75s19.79-13.36,41.26-10.16,36.5,21.75,36.5,21.75S852.62,606.29,831.15,603.09Z"/><path class="cls-1" d="M763.2,628.66C748.74,644.86,725,647.24,725,647.24s-.31-23.88,14.15-40.07,38.22-18.57,38.22-18.57S777.66,612.47,763.2,628.66Z"/><path class="cls-1" d="M790,623.91c0,12-7.52,21.6-7.52,21.6s-7.39-9.71-7.35-21.65,7.52-21.6,7.52-21.6S790.06,612,790,623.91Z"/><path class="cls-1" d="M819.08,607.06c9,7.85,11.42,19.82,11.42,19.82s-12.19-.76-21.2-8.61-11.41-19.82-11.41-19.82S810.07,599.21,819.08,607.06Z"/><path class="cls-2" d="M1021.43,508.29S1048,554.46,1086.84,583c22.71,16.66,61.25,38.2,100,54.88s72.92,26.63,100.46,45.15c41.34,27.82,86.55,71.34,86.55,71.34a15.69,15.69,0,0,0,21.91-3.06l.16-.21a15.7,15.7,0,0,0-3.67-21.83s-47.17-42.12-86.62-69.71c-31.37-22-59.38-27.76-105.05-49.18-43.12-20.23-84.86-44.78-95.35-52.47-37.5-27.5-56-51.54-65.41-74.67-4.49-11-3.64-34.8-12.75-42-5.33-4.22-15.79-1.42-19.49,4.51C999,459.52,1016.43,499.41,1021.43,508.29Z"/><path class="cls-2" d="M1180.84,631.6s-8.21,161.09-12.74,214.81c-3.37,39.93-6.62,122.41-20.2,159.78-7.41,20.37-25.09,45.18-10.43,51.91,11.82,5.43,19.56-3.55,24.67-12.58,4.76-8.4,8.28-17.2,13.7-34.88,11.78-38.43,16.88-120.47,20.27-160.59,4.42-52.48,4.47-52.47,12.85-216.07.76-9-4.94-16.93-12.68-17.58h0C1188.55,615.74,1181.6,622.59,1180.84,631.6Z"/><path class="cls-2" d="M1223.5,644s2.93,142.66,12.14,189.28c4,20.35,7.83,46.92,17.35,72.77,7.21,19.57,13.83,33.78,31.35,45,12.83,8.19,44.49,8.71,38.48,30.39-3.81,13.75-29.21,6.6-38.72,3.48-38.62-12.65-55.06-52.35-62-70.59-10.29-27.12-14-56.13-18.28-77.41-9.16-45.51-7.17-46.2-12.22-190.39-.62-7.94,6-15,14.81-15.68h0C1215.21,630.09,1222.88,636,1223.5,644Z"/><path class="cls-2" d="M1279.11,492.63c-13.1,35.68-50.06,54.93-50.06,54.93s-15.73-38.59-2.63-74.27,50-54.93,50-54.93S1292.2,457,1279.11,492.63Z"/><path class="cls-2" d="M1294.42,566c-30.56,5.67-59.36-11.45-59.36-11.45s20.75-26.31,51.3-32,59.36,11.46,59.36,11.46S1325,560.37,1294.42,566Z"/><path class="cls-2" d="M1202.89,492.14c18.14,23.46,15.36,56,15.36,56s-32.17-5.51-50.3-29-15.36-56-15.36-56S1184.76,468.68,1202.89,492.14Z"/><path class="cls-2" d="M1246.21,598.23c-13.06-15.18-12.36-37.2-12.36-37.2s21.87,2.61,34.93,17.8S1281.13,616,1281.13,616,1259.27,613.42,1246.21,598.23Z"/><path class="cls-2" d="M1183.35,575.09c-19.86,2.58-37.87-10.09-37.87-10.09s14.18-16.85,34-19.43,37.88,10.09,37.88,10.09S1203.21,572.51,1183.35,575.09Z"/><path class="cls-2" d="M1204.94,588c-7.24,8.31-18.28,10.54-18.28,10.54s.69-11.24,7.93-19.55,18.28-10.54,18.28-10.54S1212.17,579.64,1204.94,588Z"/><path class="cls-2" d="M1235.39,593.72c1.55,10.9-4,20.71-4,20.71s-8.05-7.87-9.6-18.78,4-20.72,4-20.72S1233.84,582.81,1235.39,593.72Z"/><line class="cls-3" x1="1020.03" y1="349.09" x2="1020.03" y2="407.52"/><line class="cls-3" x1="1079.76" y1="375.12" x2="1042.81" y2="420.39"/><line class="cls-3" x1="998.85" y1="420.69" x2="962.66" y2="374.81"/><line class="cls-3" x1="986.63" y1="450.12" x2="937.71" y2="428.15"/><line class="cls-3" x1="1100.59" y1="427.61" x2="1052.72" y2="450.66"/></g></svg>