<svg id="Logo_Completo" data-name="Logo Completo" xmlns="http://www.w3.org/2000/svg" viewBox="0 0 2000 1500"><defs><style>.cls-1{fill:#016a3a;}.cls-2,.cls-5{fill:#ffc20e;}.cls-3{fill:#459c24;}.cls-4{fill:#036a39;}.cls-5{stroke:#ffc20e;stroke-linecap:round;stroke-linejoin:round;stroke-width:13.3px;}</style></defs><path class="cls-1" d="M288.73,1096.3v-46.12H414v109.06q-18.26,16.8-52.89,29.6a201.41,201.41,0,0,1-70.17,12.79q-45.15,0-78.7-18a117.1,117.1,0,0,1-50.44-51.54q-16.89-33.52-16.88-72.93,0-42.76,18.84-76t55.15-51q27.67-13.62,68.89-13.63,53.58,0,83.71,21.38T410.22,999l-57.7,10.27a58,58,0,0,0-22.87-31.84q-16.77-11.67-41.9-11.67-38.08,0-60.55,23t-22.47,68.16q0,48.74,22.77,73.11t59.66,24.37a104.66,104.66,0,0,0,36.61-6.81,127.88,127.88,0,0,0,31.5-16.53V1096.3Z"/><path class="cls-1" d="M467.53,1197V923.19h93.23q53,0,69.08,4.11,24.74,6.15,41.42,26.79t16.68,53.32q0,25.22-9.62,42.39t-24.43,27a86.51,86.51,0,0,1-30.13,13q-20.81,3.92-60.25,3.92H525.63V1197Zm58.1-227.46v77.69h31.79q34.35,0,45.93-4.3a37.87,37.87,0,0,0,18.15-13.44,35.56,35.56,0,0,0,6.58-21.29q0-14.94-9.23-24.65a40.8,40.8,0,0,0-23.35-12.14q-10.41-1.86-41.81-1.87Z"/><path class="cls-1" d="M720.91,1107.88l56.53-5.23q5.1,27.09,20.7,39.78t42.1,12.7q28.07,0,42.3-11.3t14.23-26.42a24.17,24.17,0,0,0-6-16.53q-6-6.81-20.9-11.86-10.21-3.36-46.52-12-46.71-11-65.55-27.08-26.49-22.59-26.5-55.09,0-20.91,12.47-39.12T779.69,928q23.46-9.52,56.63-9.52,54.16,0,81.55,22.6t28.75,60.31l-58.1,2.43q-3.72-21.09-16-30.34t-36.8-9.25q-25.32,0-39.65,9.9-9.23,6.35-9.22,17,0,9.72,8.63,16.62,11,8.79,53.39,18.31t62.71,19.7q20.31,10.18,31.79,27.82t11.48,43.61q0,23.54-13.74,44.07t-38.86,30.53q-25.12,10-62.61,10-54.55,0-83.8-24T720.91,1107.88Z"/><path class="cls-2" d="M1115.61,923.19h115q34.14,0,50.93,2.71a77.06,77.06,0,0,1,30,11.29,71.86,71.86,0,0,1,22.08,22.88,59.65,59.65,0,0,1,8.83,32,61.54,61.54,0,0,1-10.89,35.29,66.64,66.64,0,0,1-29.54,24.09q26.3,7.29,40.43,24.84t14.13,41.27a78.08,78.08,0,0,1-9.13,36.32,74.13,74.13,0,0,1-24.92,28.2q-15.81,10.56-39,13-14.53,1.5-70.07,1.87h-97.93Zm58.09,45.56v63.31h38.08q33.95,0,42.19-.93,14.92-1.68,23.46-9.81t8.53-21.38q0-12.69-7.36-20.63t-21.88-9.62q-8.64-.93-49.65-.94Zm0,108.88v73.2h53.78q31.39,0,39.84-1.68,13-2.24,21.1-10.92t8.14-23.25q0-12.33-6.28-20.92t-18.15-12.51q-11.88-3.91-51.52-3.92Z"/><path class="cls-2" d="M1542.49,1197v-29.69a79.28,79.28,0,0,1-29.93,25,87.4,87.4,0,0,1-39.16,9.15q-21,0-37.68-8.78T1411.58,1168q-7.47-15.87-7.46-43.88V998.63h55.15v91.14q0,41.84,3,51.26A28,28,0,0,0,1473.4,1156q8,5.51,20.41,5.51a45,45,0,0,0,25.32-7.38q11.19-7.38,15.31-18.3t4.12-53.5V998.63h55.15V1197Z"/><path class="cls-2" d="M1842,1197h-51.23v-29.13q-12.75,17-30.12,25.3a80.49,80.49,0,0,1-35,8.31q-35.91,0-61.53-27.54t-25.61-76.85q0-50.41,24.93-76.66t63-26.24q34.93,0,60.45,27.64v-98.6H1842Zm-147.2-103.46q0,31.76,9.22,45.94,13.35,20.55,37.29,20.54,19,0,32.39-15.4t13.34-46q0-34.17-13-49.2t-33.17-15q-19.62,0-32.87,14.85T1694.79,1093.5Z"/><path class="cls-1" d="M163.16,1389.07v-84.72h57v10H174.35v26.24H214v10H174.35v38.48Z"/><path class="cls-1" d="M262.26,1389.07v-84.72h11.19v84.72Z"/><path class="cls-1" d="M318.69,1389.07v-84.72h11.48l44.4,66.52v-66.52H385.3v84.72H373.82l-44.4-66.57v66.57Z"/><path class="cls-1" d="M429.73,1389.07v-84.72h29.12a70.3,70.3,0,0,1,15,1.22,28.48,28.48,0,0,1,12.4,6.07,34.45,34.45,0,0,1,10,14.47,57,57,0,0,1,3.31,20.14,59.29,59.29,0,0,1-2.24,17.11,41.56,41.56,0,0,1-5.77,12.33,30.67,30.67,0,0,1-7.7,7.69,31.26,31.26,0,0,1-10.09,4.25,57.67,57.67,0,0,1-13.58,1.44Zm11.19-10H459q8.36,0,13.12-1.56a18.71,18.71,0,0,0,7.58-4.4,26.7,26.7,0,0,0,6.2-10.72,52.47,52.47,0,0,0,2.22-16.32q0-13.29-4.35-20.43t-10.59-9.57q-4.48-1.72-14.47-1.73H440.92Z"/><path class="cls-1" d="M598.63,1389.07v-84.72h31.72q9.69,0,15.55,2.58a20,20,0,0,1,9.16,7.91,20.84,20.84,0,0,1,3.32,11.18,19.21,19.21,0,0,1-2.94,10.23,21,21,0,0,1-8.88,7.75,22.07,22.07,0,0,1,11.79,7.68,20.63,20.63,0,0,1,4.13,12.83,24.83,24.83,0,0,1-2.51,11.07,21.51,21.51,0,0,1-6.2,7.89,26,26,0,0,1-9.26,4.19,56.43,56.43,0,0,1-13.64,1.41ZM609.82,1340H628.1q7.44,0,10.67-1a11.82,11.82,0,0,0,6.43-4.22,12.18,12.18,0,0,0,2.17-7.4,13.68,13.68,0,0,0-2-7.42,10.23,10.23,0,0,0-5.77-4.39q-3.75-1.18-12.86-1.19h-16.9Zm0,39.13h21a48,48,0,0,0,7.61-.41,18.12,18.12,0,0,0,6.46-2.31,12.25,12.25,0,0,0,4.27-4.71,14.71,14.71,0,0,0,1.67-7.14,14,14,0,0,0-2.42-8.23,12.72,12.72,0,0,0-6.72-4.91q-4.29-1.42-12.37-1.42H609.82Z"/><path class="cls-1" d="M759,1304.35h11.19v49q0,12.78-2.88,20.29a24.84,24.84,0,0,1-10.41,12.22q-7.53,4.71-19.76,4.71-11.88,0-19.43-4.11a23.34,23.34,0,0,1-10.78-11.87q-3.24-7.77-3.23-21.24v-49h11.18v48.89q0,11,2,16.27a15.53,15.53,0,0,0,7,8.06,24.31,24.31,0,0,0,12.19,2.83q12.35,0,17.59-5.6t5.25-21.56Z"/><path class="cls-1" d="M814.43,1389.07v-84.72h29.12a70.36,70.36,0,0,1,15.05,1.22,28.48,28.48,0,0,1,12.4,6.07,34.54,34.54,0,0,1,10,14.47,57,57,0,0,1,3.31,20.14,59.27,59.27,0,0,1-2.25,17.11,41.56,41.56,0,0,1-5.76,12.33,30.84,30.84,0,0,1-7.7,7.69,31.23,31.23,0,0,1-10.1,4.25,57.61,57.61,0,0,1-13.58,1.44Zm11.18-10h18q8.37,0,13.12-1.56a18.76,18.76,0,0,0,7.59-4.4,26.7,26.7,0,0,0,6.2-10.72,52.47,52.47,0,0,0,2.22-16.32q0-13.29-4.36-20.43t-10.58-9.57q-4.5-1.72-14.47-1.73H825.61Z"/><path class="cls-1" d="M968,1389.07l32.47-84.72h12l34.61,84.72h-12.75l-9.86-25.66H989.16l-9.29,25.66Zm24.4-34.79h28.66l-8.83-23.46q-4-10.69-6-17.57a108.25,108.25,0,0,1-4.56,16.18Z"/><path class="cls-1" d="M1081.57,1389.07v-84.72H1093l44.41,66.52v-66.52h10.73v84.72H1136.7l-44.41-66.57v66.57Z"/><path class="cls-1" d="M1231.94,1329.26l16.38-24.91h13l-33.74,48.84v35.88h-11.19v-35.88l-32.58-48.84h13.61l16.67,25.55q4.61,7.15,8.59,14.33,3.81-6.64,9.23-15"/><path class="cls-1" d="M1311.78,1389.07l-22.44-84.72h11.48l12.86,55.54q2.07,8.73,3.58,17.34,3.23-13.59,3.8-15.66l16.09-57.22h13.5l12.11,42.88a227.86,227.86,0,0,1,6.57,30q1.62-8,4.21-18.44l13.27-54.44h11.24l-23.18,84.72h-10.79l-17.82-64.55q-2.25-8.08-2.65-9.94-1.32,5.84-2.48,9.94l-17.93,64.55Z"/><path class="cls-1" d="M1434.46,1389.07v-84.72h11.19v34.79h43.95v-34.79h11.18v84.72H1489.6v-39.93h-43.95v39.93Z"/><path class="cls-1" d="M1545.27,1389.07v-84.72h61.13v10h-49.94v26h46.77v9.94h-46.77v28.84h51.9v10Z"/><path class="cls-1" d="M1649.62,1389.07v-84.72h37.49q11.3,0,17.18,2.29a18.79,18.79,0,0,1,9.4,8.06,24,24,0,0,1,3.52,12.77,21.34,21.34,0,0,1-5.82,15.2q-5.84,6.18-18,7.86a28.8,28.8,0,0,1,6.75,4.22,58.24,58.24,0,0,1,9.29,11.27l14.7,23h-14.07l-11.19-17.62q-4.9-7.64-8.07-11.68a25.73,25.73,0,0,0-5.68-5.66,16.65,16.65,0,0,0-5.11-2.25,33.25,33.25,0,0,0-6.22-.41h-13v37.62Zm11.19-47.33h24q7.67,0,12-1.59a12.71,12.71,0,0,0,6.58-5.08,13.76,13.76,0,0,0,2.25-7.6,12.64,12.64,0,0,0-4.36-9.88q-4.35-3.87-13.75-3.87h-26.76Z"/><path class="cls-1" d="M1760.6,1389.07v-84.72h61.13v10h-49.94v26h46.77v9.94h-46.77v28.84h51.9v10Z"/><path class="cls-3" d="M999.37,240.42s-29.28,51.87-72.21,85.19c-25.09,19.48-67.68,45.21-110.52,65.65s-80.6,33.28-111,55.07C660,479.06,610,529.13,610,529.13c-7.77,6-18.68,5.11-24.24-2.06l-.18-.22c-5.56-7.17-3.75-18,4-24,0,0,51.42-49.59,95.68-81,32.19-22.87,65.62-33.72,116.1-59.73,47.65-24.56,93.77-53.76,105.36-62.75,41.42-32.16,61.82-59.44,72.21-85.19,4.95-12.29,4-38.14,14-46.53,5.89-4.91,17.46-2.47,21.57,3.78C1024.13,186,1004.89,230.46,999.37,240.42Z"/><path class="cls-3" d="M813.77,393.87s7.93,180,12.59,240c3.47,44.61,10.19,136.2,21.45,178.61,3.51,13.21,12.76,30.54,15.32,41.36,2.32,9.8-1.63,16.7-9.07,17.78-11,1.58-16.3-5.6-22.63-15.31-7.14-11-12.39-26.71-15.15-39.06-9.79-43.82-18-134.67-21.51-179.5-4.56-58.65-4.62-58.65-12.7-241.44-.79-10.08,5.71-18.88,14.43-19.55h0C805.22,376.11,813,383.8,813.77,393.87Z"/><path class="cls-3" d="M773.21,401.38S769.29,556.28,759.79,607c-4.14,22.11-8.12,51-17.78,79.12-7.31,21.3-14,36.77-31.51,49-12.83,9-45.52,5.25-38.52,29.76,3.5,12.26,29,10.46,38.52,7,38.51-14,55.16-57.23,62.17-77.07,10.42-29.52,14.32-61,18.73-84.17,9.44-49.47,7.46-50.2,13.51-206.78a15.85,15.85,0,0,0-14.63-16.91h0A15.85,15.85,0,0,0,773.21,401.38Z"/><path class="cls-3" d="M764.51,214.12c14.54,38.54-2.13,80.53-2.13,80.53s-40.25-20.51-54.8-59,2.13-80.53,2.13-80.53S750,175.57,764.51,214.12Z"/><path class="cls-3" d="M829.09,263.47c-21.05,26.3-56.8,32.67-56.8,32.67s-1.63-36.28,19.41-62.58,56.8-32.67,56.8-32.67S850.13,237.17,829.09,263.47Z"/><path class="cls-3" d="M701.65,267.73c31.5,6.39,52.27,35,52.27,35s-30.29,18.28-61.79,11.9-52.27-35-52.27-35S670.16,261.34,701.65,267.73Z"/><path class="cls-3" d="M812.37,324.05c-21.47-3.2-36.5-21.75-36.5-21.75s19.78-13.36,41.26-10.16,36.5,21.75,36.5,21.75S833.84,327.25,812.37,324.05Z"/><path class="cls-3" d="M744.42,349.62C730,365.81,706.2,368.19,706.2,368.19s-.31-23.87,14.15-40.06,38.22-18.58,38.22-18.58S758.88,333.42,744.42,349.62Z"/><path class="cls-3" d="M771.23,344.87c0,11.94-7.52,21.6-7.52,21.6s-7.4-9.72-7.35-21.66,7.52-21.6,7.52-21.6S771.28,332.92,771.23,344.87Z"/><path class="cls-3" d="M800.3,328c9,7.85,11.41,19.82,11.41,19.82s-12.18-.76-21.19-8.61-11.42-19.81-11.42-19.81S791.29,320.16,800.3,328Z"/><path class="cls-4" d="M1002.65,229.24s26.55,46.17,65.41,74.67c22.71,16.65,61.25,38.2,100,54.88s72.92,26.63,100.46,45.15c41.34,27.81,86.54,71.34,86.54,71.34a15.7,15.7,0,0,0,21.92-3.07l.16-.21a15.7,15.7,0,0,0-3.67-21.82s-47.17-42.12-86.62-69.72c-31.38-21.94-59.38-27.76-105-49.18-43.12-20.22-84.86-44.78-95.35-52.47-37.5-27.5-56-51.54-65.41-74.67-4.5-11-3.64-34.8-12.75-42-5.33-4.22-15.79-1.42-19.49,4.52C980.19,180.47,997.65,220.36,1002.65,229.24Z"/><path class="cls-4" d="M1162.06,352.56s-8.21,161.09-12.75,214.81c-3.36,39.92-6.61,122.4-20.2,159.78-7.4,20.37-25.08,45.17-10.42,51.9,11.82,5.43,19.56-3.55,24.67-12.58,4.75-8.39,8.27-17.19,13.7-34.88,11.78-38.43,16.88-120.46,20.26-160.59,4.43-52.48,4.48-52.47,12.86-216.07.76-9-5-16.93-12.68-17.58h0C1169.77,336.7,1162.82,343.54,1162.06,352.56Z"/><path class="cls-4" d="M1204.72,364.93s2.93,142.66,12.14,189.28c4,20.34,7.83,46.91,17.35,72.76,7.21,19.58,13.83,33.78,31.35,44.95,12.83,8.19,44.49,8.71,38.48,30.39-3.81,13.75-29.21,6.6-38.73,3.48-38.61-12.65-55-52.35-62-70.59-10.28-27.12-14-56.12-18.27-77.4-9.16-45.52-7.17-46.21-12.23-190.4-.61-7.94,6.05-15,14.82-15.68h0C1196.43,351,1204.1,357,1204.72,364.93Z"/><path class="cls-4" d="M1260.33,213.58c-13.1,35.68-50.06,54.93-50.06,54.93s-15.73-38.59-2.64-74.27,50.06-54.93,50.06-54.93S1273.42,177.91,1260.33,213.58Z"/><path class="cls-4" d="M1275.63,287c-30.55,5.67-59.35-11.45-59.35-11.45s20.75-26.31,51.3-32S1326.93,255,1326.93,255,1306.19,281.32,1275.63,287Z"/><path class="cls-4" d="M1184.11,213.09c18.13,23.46,15.36,56,15.36,56s-32.17-5.51-50.3-29-15.36-56-15.36-56S1166,189.64,1184.11,213.09Z"/><path class="cls-4" d="M1227.43,319.18C1214.37,304,1215.07,282,1215.07,282s21.87,2.6,34.93,17.79,12.35,37.2,12.35,37.2S1240.48,334.37,1227.43,319.18Z"/><path class="cls-4" d="M1164.57,296c-19.86,2.58-37.87-10.08-37.87-10.08s14.18-16.85,34-19.43,37.88,10.08,37.88,10.08S1184.43,293.46,1164.57,296Z"/><path class="cls-4" d="M1186.16,308.9c-7.24,8.31-18.28,10.54-18.28,10.54s.69-11.24,7.93-19.55,18.28-10.54,18.28-10.54S1193.39,300.59,1186.16,308.9Z"/><path class="cls-4" d="M1216.61,314.67c1.55,10.91-4,20.72-4,20.72s-8.05-7.88-9.61-18.79,4-20.72,4-20.72S1215.06,303.76,1216.61,314.67Z"/><line class="cls-5" x1="1001.25" y1="70.04" x2="1001.25" y2="128.48"/><line class="cls-5" x1="1060.97" y1="96.07" x2="1024.03" y2="141.34"/><line class="cls-5" x1="980.07" y1="141.65" x2="943.88" y2="95.76"/><line class="cls-5" x1="967.85" y1="171.07" x2="918.93" y2="149.1"/><line class="cls-5" x1="1081.81" y1="148.56" x2="1033.93" y2="171.61"/></svg>